<svg xmlns="http://www.w3.org/2000/svg" xmlns:xlink="http://www.w3.org/1999/xlink" width="500" zoomAndPan="magnify" viewBox="0 0 375 374.999991" height="500" preserveAspectRatio="xMidYMid meet" version="1.0"><defs><g/><clipPath id="3786aa1efd"><path d="M 75 75 L 187.5 75 L 187.5 187.5 L 75 187.5 Z M 75 75 " clip-rule="nonzero"/></clipPath><clipPath id="f02dee0f3f"><path d="M 92.25 75 L 170.25 75 C 174.824219 75 179.210938 76.816406 182.449219 80.050781 C 185.683594 83.289062 187.5 87.675781 187.5 92.25 L 187.5 170.25 C 187.5 174.824219 185.683594 179.210938 182.449219 182.449219 C 179.210938 185.683594 174.824219 187.5 170.25 187.5 L 92.25 187.5 C 87.675781 187.5 83.289062 185.683594 80.050781 182.449219 C 76.816406 179.210938 75 174.824219 75 170.25 L 75 92.25 C 75 87.675781 76.816406 83.289062 80.050781 80.050781 C 83.289062 76.816406 87.675781 75 92.25 75 " clip-rule="nonzero"/></clipPath><clipPath id="ea17cfa38d"><path d="M 192.75 75 L 305.25 75 L 305.25 187.5 L 192.75 187.5 Z M 192.75 75 " clip-rule="nonzero"/></clipPath><clipPath id="aab125377d"><path d="M 210 75 L 288 75 C 292.574219 75 296.960938 76.816406 300.199219 80.050781 C 303.433594 83.289062 305.25 87.675781 305.25 92.25 L 305.25 170.25 C 305.25 174.824219 303.433594 179.210938 300.199219 182.449219 C 296.960938 185.683594 292.574219 187.5 288 187.5 L 210 187.5 C 205.425781 187.5 201.039062 185.683594 197.800781 182.449219 C 194.566406 179.210938 192.75 174.824219 192.75 170.25 L 192.75 92.25 C 192.75 87.675781 194.566406 83.289062 197.800781 80.050781 C 201.039062 76.816406 205.425781 75 210 75 " clip-rule="nonzero"/></clipPath><clipPath id="70dea6027e"><path d="M 75 192 L 187.5 192 L 187.5 304.5 L 75 304.5 Z M 75 192 " clip-rule="nonzero"/></clipPath><clipPath id="e14968ae4b"><path d="M 92.25 192 L 170.25 192 C 174.824219 192 179.210938 193.816406 182.449219 197.050781 C 185.683594 200.289062 187.5 204.675781 187.5 209.25 L 187.5 287.25 C 187.5 291.824219 185.683594 296.210938 182.449219 299.449219 C 179.210938 302.683594 174.824219 304.5 170.25 304.5 L 92.25 304.5 C 87.675781 304.5 83.289062 302.683594 80.050781 299.449219 C 76.816406 296.210938 75 291.824219 75 287.25 L 75 209.25 C 75 204.675781 76.816406 200.289062 80.050781 197.050781 C 83.289062 193.816406 87.675781 192 92.25 192 " clip-rule="nonzero"/></clipPath><clipPath id="5ee892fc9f"><path d="M 192.75 192 L 305.25 192 L 305.25 304.5 L 192.75 304.5 Z M 192.75 192 " clip-rule="nonzero"/></clipPath><clipPath id="fafef6f019"><path d="M 210 192 L 288 192 C 292.574219 192 296.960938 193.816406 300.199219 197.050781 C 303.433594 200.289062 305.25 204.675781 305.25 209.25 L 305.25 287.25 C 305.25 291.824219 303.433594 296.210938 300.199219 299.449219 C 296.960938 302.683594 292.574219 304.5 288 304.5 L 210 304.5 C 205.425781 304.5 201.039062 302.683594 197.800781 299.449219 C 194.566406 296.210938 192.75 291.824219 192.75 287.25 L 192.75 209.25 C 192.75 204.675781 194.566406 200.289062 197.800781 197.050781 C 201.039062 193.816406 205.425781 192 210 192 " clip-rule="nonzero"/></clipPath></defs><g clip-path="url(#3786aa1efd)"><g clip-path="url(#f02dee0f3f)"><path fill="#7ed957" d="M 75 75 L 187.5 75 L 187.5 187.5 L 75 187.5 Z M 75 75 " fill-opacity="1" fill-rule="nonzero"/></g></g><g clip-path="url(#ea17cfa38d)"><g clip-path="url(#aab125377d)"><path fill="#fbd160" d="M 192.75 75 L 305.25 75 L 305.25 187.5 L 192.75 187.5 Z M 192.75 75 " fill-opacity="1" fill-rule="nonzero"/></g></g><g clip-path="url(#70dea6027e)"><g clip-path="url(#e14968ae4b)"><path fill="#e44650" d="M 75 192 L 187.5 192 L 187.5 304.5 L 75 304.5 Z M 75 192 " fill-opacity="1" fill-rule="nonzero"/></g></g><g clip-path="url(#5ee892fc9f)"><g clip-path="url(#fafef6f019)"><path fill="#5d6c89" d="M 192.75 192 L 305.25 192 L 305.25 304.5 L 192.75 304.5 Z M 192.75 192 " fill-opacity="1" fill-rule="nonzero"/></g></g><g fill="#ffffff" fill-opacity="1"><g transform="translate(103.198827, 162.68683)"><g><path d="M 28.03125 -10.375 C 26.96875 -10.375 26.050781 -10.753906 25.28125 -11.515625 C 24.519531 -12.285156 24.140625 -13.203125 24.140625 -14.265625 L 24.140625 -30.640625 L 7.78125 -30.640625 C 6.71875 -30.640625 5.816406 -31.003906 5.078125 -31.734375 C 4.347656 -32.460938 3.984375 -33.359375 3.984375 -34.421875 C 3.984375 -35.554688 4.347656 -36.488281 5.078125 -37.21875 C 5.816406 -37.945312 6.71875 -38.3125 7.78125 -38.3125 L 24.140625 -38.3125 L 24.140625 -54.6875 C 24.140625 -55.8125 24.519531 -56.738281 25.28125 -57.46875 C 26.050781 -58.207031 26.96875 -58.578125 28.03125 -58.578125 C 29.164062 -58.578125 30.097656 -58.207031 30.828125 -57.46875 C 31.566406 -56.738281 31.9375 -55.8125 31.9375 -54.6875 L 31.9375 -38.3125 L 48.1875 -38.3125 C 49.320312 -38.3125 50.253906 -37.945312 50.984375 -37.21875 C 51.710938 -36.488281 52.078125 -35.554688 52.078125 -34.421875 C 52.078125 -33.359375 51.710938 -32.460938 50.984375 -31.734375 C 50.253906 -31.003906 49.320312 -30.640625 48.1875 -30.640625 L 31.9375 -30.640625 L 31.9375 -14.265625 C 31.9375 -13.203125 31.566406 -12.285156 30.828125 -11.515625 C 30.097656 -10.753906 29.164062 -10.375 28.03125 -10.375 Z M 28.03125 -10.375 "/></g></g></g><g fill="#ffffff" fill-opacity="1"><g transform="translate(221.577016, 169.80018)"><g><path d="M 14.65625 -32.25 C 13.125 -32.25 11.84375 -32.765625 10.8125 -33.796875 C 9.78125 -34.828125 9.265625 -36.101562 9.265625 -37.625 C 9.265625 -39.144531 9.78125 -40.441406 10.8125 -41.515625 C 11.84375 -42.597656 13.125 -43.140625 14.65625 -43.140625 L 40.046875 -43.140625 C 41.566406 -43.140625 42.863281 -42.597656 43.9375 -41.515625 C 45.019531 -40.441406 45.5625 -39.144531 45.5625 -37.625 C 45.5625 -36.101562 45.019531 -34.828125 43.9375 -33.796875 C 42.863281 -32.765625 41.566406 -32.25 40.046875 -32.25 Z M 14.65625 -32.25 "/></g></g></g><g fill="#ffffff" fill-opacity="1"><g transform="translate(106.563638, 270.317927)"><g><path d="M 6.328125 0.375 C 5.492188 0.375 4.769531 0.0664062 4.15625 -0.546875 C 3.539062 -1.160156 3.234375 -1.882812 3.234375 -2.71875 C 3.234375 -3.507812 3.457031 -4.195312 3.90625 -4.78125 L 20.890625 -25.671875 L 4.046875 -46.421875 C 3.609375 -47.003906 3.390625 -47.691406 3.390625 -48.484375 C 3.390625 -49.410156 3.691406 -50.179688 4.296875 -50.796875 C 4.910156 -51.410156 5.6875 -51.71875 6.625 -51.71875 C 7.164062 -51.71875 7.679688 -51.59375 8.171875 -51.34375 C 8.660156 -51.101562 9.050781 -50.785156 9.34375 -50.390625 L 24.859375 -30.671875 L 40.390625 -50.53125 C 40.921875 -51.320312 41.726562 -51.71875 42.8125 -51.71875 C 43.695312 -51.71875 44.457031 -51.410156 45.09375 -50.796875 C 45.726562 -50.179688 46.046875 -49.429688 46.046875 -48.546875 C 46.046875 -47.859375 45.851562 -47.25 45.46875 -46.71875 L 28.46875 -25.75 L 45.46875 -4.859375 C 45.90625 -4.367188 46.125 -3.726562 46.125 -2.9375 C 46.125 -2.007812 45.816406 -1.222656 45.203125 -0.578125 C 44.585938 0.0546875 43.789062 0.375 42.8125 0.375 C 41.726562 0.375 40.847656 -0.09375 40.171875 -1.03125 L 24.421875 -20.8125 L 8.90625 -0.953125 C 8.164062 -0.0664062 7.304688 0.375 6.328125 0.375 Z M 6.328125 0.375 "/></g></g></g><g fill="#ffffff" fill-opacity="1"><g transform="translate(216.961382, 275.240969)"><g><path d="M 10.078125 -36.34375 C 9.117188 -36.34375 8.289062 -36.6875 7.59375 -37.375 C 6.90625 -38.070312 6.5625 -38.898438 6.5625 -39.859375 C 6.5625 -40.878906 6.90625 -41.71875 7.59375 -42.375 C 8.289062 -43.03125 9.117188 -43.359375 10.078125 -43.359375 L 53.984375 -43.359375 C 55.003906 -43.359375 55.84375 -43.03125 56.5 -42.375 C 57.15625 -41.71875 57.484375 -40.878906 57.484375 -39.859375 C 57.484375 -38.898438 57.15625 -38.070312 56.5 -37.375 C 55.84375 -36.6875 55.003906 -36.34375 53.984375 -36.34375 Z M 10.078125 -16.1875 C 9.117188 -16.1875 8.289062 -16.53125 7.59375 -17.21875 C 6.90625 -17.914062 6.5625 -18.742188 6.5625 -19.703125 C 6.5625 -20.722656 6.90625 -21.5625 7.59375 -22.21875 C 8.289062 -22.882812 9.117188 -23.21875 10.078125 -23.21875 L 53.984375 -23.21875 C 55.003906 -23.21875 55.84375 -22.882812 56.5 -22.21875 C 57.15625 -21.5625 57.484375 -20.722656 57.484375 -19.703125 C 57.484375 -18.742188 57.15625 -17.914062 56.5 -17.21875 C 55.84375 -16.53125 55.003906 -16.1875 53.984375 -16.1875 Z M 10.078125 -16.1875 "/></g></g></g></svg>